<svg class="diagram-root" style="background: #f5f6f6" xmlns="http://www.w3.org/2000/svg" xmlns:xlink="http://www.w3.org/1999/xlink"><style>.diagram-root { font-family: "Helvetica Neue", sans-serif; font-size: 12px; } .t { overflow: visible; } .t-bg { y: 40; fill: #fff;   } .th { fill: #005aa0;   } .tht { fill: #fff; font-size: 14px;  } .tf { fill: #323c46; overflow: visible; } .tf.pk { fill: #005aa0; font-weight: bold; } .tf.fk { font-weight: bold; } .ty { fill: #adb1b5; font-weight: normal; text-anchor: end; } .r { fill: transparent; stroke: #c3c3c3; stroke-width: 1; } .l { stroke: 1; } .i { fill: #c2c7ce; stroke: #c2c7ce; } .i.ix { fill: #afb3b6; stroke: #000; } .fa { fill: transparent; overflow: visible; } .fa .bg.hover { fill: #f7f7f7; } .c { cy: 12; r: 4; stroke: #d2d2dc; fill: #d2d2dc; } .hr { fill: transparent; stroke: #323c46; stroke-opacity: 0.035; stroke-width: 13; } .dc { stroke: #fa5a3c; fill: #fa5a3c; } .x { stroke: white; stroke-width: 1; } .hl .th { fill: #1b9bff; } .hl .tht {  } .fhl .bg { fill: #e7f4ff; } .fhls .bg {  } .r.hl { stroke: #1b9bff; } .dim { opacity: 0.25; }</style><g class="drawing-wrapper" transform="translate(-2, 168.32999999999998) scale(1,1)"><g class="rs"><path d="M 30.5 55.83 m -1, 0 a 1,1 0 1,0 2,0 a 1,1 0 1,0 -2,0 M 30.5 55.83 m -0.5, 0 a 0.5,0.5 0 1,0 1,0 a 0.5,0.5 0 1,0 -1,0  M30.5 55.83 L30.5 55.83 18.5 55.83 M 30.5 61.83 m -1, 0 a 1,1 0 1,0 2,0 a 1,1 0 1,0 -2,0 M 30.5 61.83 m -0.5, 0 a 0.5,0.5 0 1,0 1,0 a 0.5,0.5 0 1,0 -1,0  M30.5 61.83 L30.5 61.83 23.5 55.83 30.5 49.83 M 30.5 49.83 m -1, 0 a 1,1 0 1,0 2,0 a 1,1 0 1,0 -2,0 M 30.5 49.83 m -0.5, 0 a 0.5,0.5 0 1,0 1,0 a 0.5,0.5 0 1,0 -1,0  M18.5 55.83 C -37.841120409111106 55.83, -33.94112040911111 193.5, 12 193.5 M 24 193.5 m -1, 0 a 1,1 0 1,0 2,0 a 1,1 0 1,0 -2,0 M 24 193.5 m -0.5, 0 a 0.5,0.5 0 1,0 1,0 a 0.5,0.5 0 1,0 -1,0  M24 193.5 L24 193.5 12 193.5 M18 199.5 L18 199.5 18 187.5" id="h1139284389" class="r"></path><path d="M 30.5 80.83 m -1, 0 a 1,1 0 1,0 2,0 a 1,1 0 1,0 -2,0 M 30.5 80.83 m -0.5, 0 a 0.5,0.5 0 1,0 1,0 a 0.5,0.5 0 1,0 -1,0  M30.5 80.83 L30.5 80.83 18.5 80.83 M 30.5 86.83 m -1, 0 a 1,1 0 1,0 2,0 a 1,1 0 1,0 -2,0 M 30.5 86.83 m -0.5, 0 a 0.5,0.5 0 1,0 1,0 a 0.5,0.5 0 1,0 -1,0  M30.5 86.83 L30.5 86.83 23.5 80.83 30.5 74.83 M 30.5 74.83 m -1, 0 a 1,1 0 1,0 2,0 a 1,1 0 1,0 -2,0 M 30.5 74.83 m -0.5, 0 a 0.5,0.5 0 1,0 1,0 a 0.5,0.5 0 1,0 -1,0  M18.5 80.83 C -37.628 80.83, -35.33 -78.84, 14.670000000000002 -78.84 M 26.67 -78.84 m -1, 0 a 1,1 0 1,0 2,0 a 1,1 0 1,0 -2,0 M 26.67 -78.84 m -0.5, 0 a 0.5,0.5 0 1,0 1,0 a 0.5,0.5 0 1,0 -1,0  M26.67 -78.84 L26.67 -78.84 14.670000000000002 -78.84 M20.67 -72.84 L20.67 -72.84 20.67 -84.84" id="h1607168654" class="r"></path><path d="M 293 -81.33000000000001 m -1, 0 a 1,1 0 1,0 2,0 a 1,1 0 1,0 -2,0 M 293 -81.33000000000001 m -0.5, 0 a 0.5,0.5 0 1,0 1,0 a 0.5,0.5 0 1,0 -1,0  M293 -81.33000000000001 L293 -81.33000000000001 281 -81.33000000000001 M 293 -75.33000000000001 m -1, 0 a 1,1 0 1,0 2,0 a 1,1 0 1,0 -2,0 M 293 -75.33000000000001 m -0.5, 0 a 0.5,0.5 0 1,0 1,0 a 0.5,0.5 0 1,0 -1,0  M293 -75.33000000000001 L293 -75.33000000000001 286 -81.33000000000001 293 -87.33000000000001 M 293 -87.33000000000001 m -1, 0 a 1,1 0 1,0 2,0 a 1,1 0 1,0 -2,0 M 293 -87.33000000000001 m -0.5, 0 a 0.5,0.5 0 1,0 1,0 a 0.5,0.5 0 1,0 -1,0  M281 -81.33000000000001 Q 257.77 -81.33000000000001, 234.53 -80.09 T 188.06 -78.84 M 176.06 -78.84 m -1, 0 a 1,1 0 1,0 2,0 a 1,1 0 1,0 -2,0 M 176.06 -78.84 m -0.5, 0 a 0.5,0.5 0 1,0 1,0 a 0.5,0.5 0 1,0 -1,0  M176.06 -78.84 L176.06 -78.84 188.06 -78.84 M182.06 -72.84 L182.06 -72.84 182.06 -84.84" id="h1397587031" class="r"></path><path d="M 293 -56.33000000000001 m -1, 0 a 1,1 0 1,0 2,0 a 1,1 0 1,0 -2,0 M 293 -56.33000000000001 m -0.5, 0 a 0.5,0.5 0 1,0 1,0 a 0.5,0.5 0 1,0 -1,0  M293 -56.33000000000001 L293 -56.33000000000001 290 -56.33000000000001 M 287 -56.33000000000001 m -3, 0 a 3,3 0 1,0 6,0 a 3,3 0 1,0 -6,0 M284 -56.33000000000001 L284 -56.33000000000001 281 -56.33000000000001 M281 -56.33000000000001 Q 257.43 -56.33000000000001, 233.86 68.58 T 186.72 193.5 M 174.72 193.5 m -1, 0 a 1,1 0 1,0 2,0 a 1,1 0 1,0 -2,0 M 174.72 193.5 m -0.5, 0 a 0.5,0.5 0 1,0 1,0 a 0.5,0.5 0 1,0 -1,0  M174.72 193.5 L174.72 193.5 186.72 193.5 M180.72 199.5 L180.72 199.5 180.72 187.5" id="h2286254435" class="r"></path><path d="M 174.72 218.5 m -1, 0 a 1,1 0 1,0 2,0 a 1,1 0 1,0 -2,0 M 174.72 218.5 m -0.5, 0 a 0.5,0.5 0 1,0 1,0 a 0.5,0.5 0 1,0 -1,0  M174.72 218.5 L174.72 218.5 186.72 218.5 M 174.72 224.5 m -1, 0 a 1,1 0 1,0 2,0 a 1,1 0 1,0 -2,0 M 174.72 224.5 m -0.5, 0 a 0.5,0.5 0 1,0 1,0 a 0.5,0.5 0 1,0 -1,0  M174.72 224.5 L174.72 224.5 181.72 218.5 174.72 212.5 M 174.72 212.5 m -1, 0 a 1,1 0 1,0 2,0 a 1,1 0 1,0 -2,0 M 174.72 212.5 m -0.5, 0 a 0.5,0.5 0 1,0 1,0 a 0.5,0.5 0 1,0 -1,0  M186.72 218.5 Q 212.58 218.5, 238.45 225.5 T 290.17 232.5 M 302.17 232.5 m -1, 0 a 1,1 0 1,0 2,0 a 1,1 0 1,0 -2,0 M 302.17 232.5 m -0.5, 0 a 0.5,0.5 0 1,0 1,0 a 0.5,0.5 0 1,0 -1,0  M302.17 232.5 L302.17 232.5 290.17 232.5 M296.17 238.5 L296.17 238.5 296.17 226.5" id="h1537058300" class="r"></path><path d="M 301.17 79.34 m -1, 0 a 1,1 0 1,0 2,0 a 1,1 0 1,0 -2,0 M 301.17 79.34 m -0.5, 0 a 0.5,0.5 0 1,0 1,0 a 0.5,0.5 0 1,0 -1,0  M301.17 79.34 L301.17 79.34 289.17 79.34 M295.17 85.34 L295.17 85.34 295.17 73.34 M289.17 79.34 Q 263.56 79.34, 237.95 136.42 T 186.72 193.5 M 174.72 193.5 m -1, 0 a 1,1 0 1,0 2,0 a 1,1 0 1,0 -2,0 M 174.72 193.5 m -0.5, 0 a 0.5,0.5 0 1,0 1,0 a 0.5,0.5 0 1,0 -1,0  M174.72 193.5 L174.72 193.5 186.72 193.5 M180.72 199.5 L180.72 199.5 180.72 187.5" id="h3177548053" class="r"></path></g><g class="hrs"></g><g class="ts"><svg width="149.39" height="100" x="26.67" y="-135.84" id="h475896179" class="t"><rect height="40" width="149.39" class="th"></rect><text x="13" y="25" class="tht">departments</text><rect height="60" width="149.39" class="t-bg" y="40"></rect><text x="13" y="61" class="tf pk">dept_no<tspan x="136.39" class="ty">varchar</tspan></text><path d="M7,14A2,2 0 0,1 5,12A2,2 0 0,1 7,10A2,2 0 0,1 9,12A2,2 0 0,1 7,14M12.65,10C11.83,7.67 9.61,6 7, 6A6, 6 0 0, 0 1, 12A6, 6 0 0, 0 7, 18C9.61, 18 11.83, 16.33 12.65, 14H17V18H21V14H23V10H12.65Z" class="i pk" transform="translate(76.37632812499999, 48) scale(0.65)"></path><text x="13" y="86" class="tf">dept_name<tspan x="136.39" class="ty">varchar</tspan></text></svg><svg width="129.39" height="100" x="30.5" y="-1.17" id="h1090417462" class="t"><rect height="40" width="129.39" class="th"></rect><text x="13" y="25" class="tht">dept_emp</text><rect height="60" width="129.39" class="t-bg" y="40"></rect><text x="13" y="61" class="tf fk">emp_no<tspan x="116.38999999999999" class="ty">int</tspan></text><text x="13" y="86" class="tf fk">dept_no<tspan x="116.38999999999999" class="ty">varchar</tspan></text></svg><svg width="129.39" height="100" x="293" y="-138.33" id="h1676682957" class="t"><rect height="40" width="129.39" class="th"></rect><text x="13" y="25" class="tht">dept_manager</text><rect height="60" width="129.39" class="t-bg" y="40"></rect><text x="13" y="61" class="tf fk">dept_no<tspan x="116.38999999999999" class="ty">varchar</tspan></text><text x="13" y="86" class="tf fk">emp_no<tspan x="116.38999999999999" class="ty">int</tspan></text></svg><svg width="150.72" height="225" x="24" y="136.5" id="h1639608377" class="t"><rect height="40" width="150.72" class="th"></rect><text x="13" y="25" class="tht">employees</text><rect height="185" width="150.72" class="t-bg" y="40"></rect><text x="13" y="61" class="tf pk">emp_no<tspan x="137.72" class="ty">int</tspan></text><path d="M7,14A2,2 0 0,1 5,12A2,2 0 0,1 7,10A2,2 0 0,1 9,12A2,2 0 0,1 7,14M12.65,10C11.83,7.67 9.61,6 7, 6A6, 6 0 0, 0 1, 12A6, 6 0 0, 0 7, 18C9.61, 18 11.83, 16.33 12.65, 14H17V18H21V14H23V10H12.65Z" class="i pk" transform="translate(105.046171875, 48) scale(0.65)"></path><text x="13" y="86" class="tf fk">emp_title_id<tspan x="137.72" class="ty">varchar</tspan></text><text x="13" y="111" class="tf">birth_date<tspan x="137.72" class="ty">date</tspan></text><text x="13" y="136" class="tf">first_name<tspan x="137.72" class="ty">varchar</tspan></text><text x="13" y="161" class="tf">last_name<tspan x="137.72" class="ty">varchar</tspan></text><text x="13" y="186" class="tf">sex<tspan x="137.72" class="ty">varchar</tspan></text><text x="13" y="211" class="tf">hire_date<tspan x="137.72" class="ty">date</tspan></text></svg><svg width="102.04" height="100" x="301.17" y="22.34" id="h2472833127" class="t"><rect height="40" width="102.04" class="th"></rect><text x="13" y="25" class="tht">salaries</text><rect height="60" width="102.04" class="t-bg" y="40"></rect><text x="13" y="61" class="tf fk">emp_no<tspan x="89.04" class="ty">int</tspan></text><text x="13" y="86" class="tf">salary<tspan x="89.04" class="ty">int</tspan></text></svg><svg width="140.7" height="100" x="302.17" y="175.5" id="h311790747" class="t"><rect height="40" width="140.7" class="th"></rect><text x="13" y="25" class="tht">titles</text><rect height="60" width="140.7" class="t-bg" y="40"></rect><text x="13" y="61" class="tf pk">title_id<tspan x="127.69999999999999" class="ty">varchar</tspan></text><path d="M7,14A2,2 0 0,1 5,12A2,2 0 0,1 7,10A2,2 0 0,1 9,12A2,2 0 0,1 7,14M12.65,10C11.83,7.67 9.61,6 7, 6A6, 6 0 0, 0 1, 12A6, 6 0 0, 0 7, 18C9.61, 18 11.83, 16.33 12.65, 14H17V18H21V14H23V10H12.65Z" class="i pk" transform="translate(67.68632812499999, 48) scale(0.65)"></path><text x="13" y="86" class="tf">title<tspan x="127.69999999999999" class="ty">varchar</tspan></text></svg></g></g><text class="qdbd-link" x="10" y="20">www.quickdatabasediagrams.com</text></svg>